<svg version="1.1" id="Layer_1" xmlns="http://www.w3.org/2000/svg" xmlns:xlink="http://www.w3.org/1999/xlink" x="0px" y="0px"
	 width="100%" viewBox="0 0 2000 1281" enable-background="new 0 0 2000 1281" xml:space="preserve">
<path fill="#FFDE2D" opacity="1.000000" stroke="none" 
	d="
M1334.000000,1.000000 
	C1350.687622,1.000000 1367.375122,1.000000 1384.197754,1.349146 
	C1386.010376,2.132289 1387.667114,2.813672 1389.369507,2.958766 
	C1398.203857,3.711733 1407.112915,3.874989 1415.877319,5.095323 
	C1429.847900,7.040528 1443.786743,9.344337 1457.626953,12.065913 
	C1477.108887,15.896949 1496.652710,19.613216 1515.862671,24.569649 
	C1532.525635,28.868944 1548.965210,34.267811 1565.132446,40.193394 
	C1584.317017,47.224777 1603.485352,54.528370 1621.962036,63.202095 
	C1642.490967,72.839134 1662.382446,83.881554 1682.259033,94.842018 
	C1693.842773,101.229530 1705.158813,108.213737 1716.045410,115.726242 
	C1729.521729,125.025749 1742.667236,134.848557 1755.516602,145.000793 
	C1769.491943,156.042542 1783.251831,167.397766 1796.557739,179.232315 
	C1806.067017,187.690033 1814.926392,196.926941 1823.620361,206.241135 
	C1835.620361,219.097046 1847.860962,231.821274 1858.783447,245.567429 
	C1873.712891,264.356812 1888.516357,283.398865 1901.500122,303.540497 
	C1915.390869,325.089081 1928.094360,347.550873 1939.470581,370.527740 
	C1949.426514,390.635864 1957.032104,411.928741 1965.292236,432.849670 
	C1973.891602,454.629456 1980.329834,477.102203 1985.352417,499.968048 
	C1988.336548,513.553406 1991.702026,527.091309 1993.850952,540.814148 
	C1996.198120,555.804688 1997.315674,570.986816 1999.081177,586.072449 
	C1999.163818,586.780151 2000.335449,587.360413 2001.000000,588.000000 
	C2001.000000,623.354248 2001.000000,658.708435 2000.653320,694.197754 
	C1999.538086,698.430481 1998.592651,702.504089 1998.033936,706.630188 
	C1996.283569,719.556458 1995.197021,732.595459 1992.893799,745.418518 
	C1989.635620,763.556702 1986.427490,781.791382 1981.531616,799.524719 
	C1976.011841,819.516724 1969.433228,839.307678 1961.870361,858.620361 
	C1953.180054,880.812805 1943.731201,902.797913 1933.075806,924.104858 
	C1923.421631,943.410034 1912.166016,961.971497 1900.737061,980.312866 
	C1892.428223,993.646973 1882.999146,1006.325378 1873.491211,1018.857422 
	C1864.809814,1030.300049 1855.528564,1041.305054 1846.183350,1052.221802 
	C1837.522949,1062.338623 1828.861572,1072.521240 1819.415405,1081.882568 
	C1807.320557,1093.869019 1794.691040,1105.352295 1781.821899,1116.510498 
	C1770.369263,1126.440430 1758.596313,1136.067261 1746.386963,1145.041748 
	C1730.207397,1156.934570 1713.849731,1168.673950 1696.858032,1179.348145 
	C1679.736206,1190.104004 1662.031616,1200.033447 1644.046997,1209.283691 
	C1628.595459,1217.230835 1612.630859,1224.326782 1596.455078,1230.683960 
	C1575.336304,1238.983887 1554.025635,1246.966553 1532.347046,1253.617798 
	C1514.184448,1259.190308 1495.446533,1262.991089 1476.829956,1266.948364 
	C1461.892822,1270.123535 1446.817017,1272.802734 1431.690308,1274.886230 
	C1415.664185,1277.093872 1399.502441,1278.311401 1383.412476,1280.076660 
	C1382.548340,1280.171509 1381.801514,1281.334351 1381.000000,1282.000000 
	C1349.979126,1282.000000 1318.958130,1282.000000 1287.772949,1281.624756 
	C1286.753296,1280.834961 1285.925903,1280.135742 1285.038208,1280.048340 
	C1270.875610,1278.652954 1256.669922,1277.626953 1242.546875,1275.916626 
	C1229.273315,1274.308960 1215.947876,1272.638916 1202.890137,1269.850586 
	C1181.614624,1265.307373 1160.368896,1260.435425 1139.430420,1254.562256 
	C1121.967163,1249.663818 1104.699585,1243.796997 1087.823975,1237.144897 
	C1068.469482,1229.515747 1049.543579,1220.763550 1030.626587,1212.074585 
	C1020.541931,1207.442627 1010.868591,1201.915161 1001.158203,1196.495605 
	C1002.648071,1195.240845 1003.914062,1194.148804 1005.341553,1193.342896 
	C1057.257935,1164.031250 1104.363281,1128.332397 1146.766602,1086.461914 
	C1168.232300,1065.265869 1187.956299,1042.526855 1206.276367,1018.527588 
	C1250.149170,961.054565 1283.235352,897.954773 1305.280884,829.136353 
	C1322.581787,775.129272 1332.197266,719.720276 1334.274658,662.660889 
	C1334.680908,656.253235 1335.018188,650.185669 1334.985596,644.120056 
	C1334.951416,637.742859 1334.563354,631.367615 1334.302490,624.598755 
	C1334.286621,623.157043 1334.298340,622.108093 1334.401611,620.930054 
	C1334.598877,620.475159 1334.531982,620.185669 1334.265869,619.469238 
	C1334.218750,616.341797 1334.179810,613.677551 1334.179810,611.013306 
	C1334.177002,410.338196 1334.177979,209.663071 1334.169922,8.987965 
	C1334.169800,6.325308 1334.059082,3.662656 1334.000000,1.000000 
z"/>
<path fill="#327EFF" opacity="1.000000" stroke="none" 
	d="
M617.000000,1.000010 
	C650.354248,1.000000 683.708435,1.000000 717.264771,1.385765 
	C719.148682,2.181276 720.812500,2.827868 722.515747,2.957884 
	C728.436462,3.409841 734.424988,3.290480 740.289490,4.100037 
	C755.462341,6.194536 770.672852,8.201690 785.702393,11.103498 
	C806.866699,15.189787 828.103821,19.223776 848.897827,24.812843 
	C870.012268,30.488049 890.879822,37.341721 911.384094,44.949657 
	C929.735229,51.758694 947.570862,60.021046 965.392944,68.169487 
	C977.476318,73.694153 989.142761,80.130775 1000.907959,86.486465 
	C995.272461,90.156525 989.734009,93.515259 984.175476,96.840439 
	C886.270874,155.407990 807.704224,233.221344 750.433777,332.120514 
	C718.821472,386.711212 695.811462,444.756348 682.371216,506.430511 
	C678.283569,525.187988 675.272339,544.199036 672.336731,563.181946 
	C670.377014,575.854370 668.883240,588.652039 668.165771,601.448914 
	C667.402344,615.066345 667.706421,628.748840 667.704590,642.402954 
	C667.676392,853.830994 667.675903,1065.259033 667.638611,1276.687012 
	C667.638245,1278.458008 667.222046,1280.229004 667.000000,1282.000000 
	C651.979126,1282.000000 636.958191,1282.000000 621.726929,1281.610474 
	C616.070923,1280.480469 610.639954,1279.600952 605.176941,1279.026855 
	C591.486511,1277.588135 577.666992,1276.987427 564.109131,1274.768311 
	C543.579834,1271.408325 523.055115,1267.675049 502.850891,1262.771729 
	C483.174377,1257.996704 463.757111,1251.997192 444.503723,1245.687866 
	C430.826263,1241.205933 417.467072,1235.650391 404.222595,1229.974731 
	C386.039154,1222.182739 367.622711,1214.721191 350.179749,1205.470703 
	C330.311584,1194.934082 311.196228,1182.915527 292.152618,1170.908325 
	C279.153564,1162.712280 266.540436,1153.823730 254.300980,1144.525879 
	C242.114716,1135.268433 230.397797,1125.356812 218.864883,1115.285522 
	C206.453751,1104.447510 194.023209,1093.556152 182.472626,1081.829590 
	C170.901031,1070.081543 160.232819,1057.421753 149.492035,1044.884399 
	C140.726959,1034.653320 131.736588,1024.499268 124.093216,1013.448547 
	C110.473480,993.757263 97.647636,973.508850 84.764275,953.318359 
	C70.705009,931.284973 59.816303,907.564026 49.465424,883.667969 
	C38.771149,858.979126 29.641512,833.635437 22.837017,807.567749 
	C18.758902,791.944641 15.312198,776.143005 12.045598,760.325806 
	C9.218922,746.638916 6.833628,732.850098 4.676054,719.040283 
	C3.621274,712.289001 3.612909,705.378784 2.923141,698.561584 
	C2.797745,697.322205 1.666749,696.184631 0.999990,695.000000 
	C1.000000,659.312439 1.000000,623.624878 1.382848,587.732666 
	C2.167152,586.847107 2.850031,586.196716 2.927619,585.480652 
	C4.000845,575.575928 4.760225,565.631714 6.067977,555.759644 
	C7.311144,546.375000 8.944303,537.032898 10.707684,527.729248 
	C12.246164,519.612122 14.120440,511.554962 15.997520,503.506561 
	C18.937935,490.898865 21.487816,478.167542 25.158167,465.771362 
	C29.223804,452.040070 33.878571,438.434723 39.151886,425.121155 
	C46.515732,406.529572 54.139782,387.998505 62.690277,369.932739 
	C69.700554,355.121246 77.611458,340.646820 86.230347,326.707550 
	C97.937584,307.773499 110.400719,289.283600 123.118942,271.006287 
	C131.156372,259.455750 139.787201,248.240158 148.986237,237.595367 
	C160.800247,223.924652 173.214600,210.746704 185.826660,197.801041 
	C193.961670,189.450821 202.782455,181.747559 211.535400,174.025833 
	C222.940674,163.964264 234.078094,153.494644 246.240540,144.419937 
	C265.055634,130.381577 284.244446,116.756439 304.006653,104.098732 
	C325.312439,90.452362 347.724731,78.658493 370.555115,67.625244 
	C394.247070,56.175644 418.413666,45.971962 443.444366,38.005634 
	C465.085052,31.118240 487.013885,25.110699 508.919586,19.093765 
	C518.148804,16.558750 527.606140,14.782522 537.031250,13.050002 
	C549.039124,10.842709 561.088379,8.808354 573.178162,7.115881 
	C582.892212,5.755985 592.689880,4.982917 602.456909,4.015605 
	C606.875061,3.578041 611.315308,3.358019 615.726929,2.870618 
	C616.214233,2.816782 616.578613,1.650411 617.000000,1.000010 
z"/>
<path fill="#FF6446" opacity="1.000000" stroke="none" 
	d="
M667.333313,1282.000000 
	C667.222046,1280.229004 667.638245,1278.458008 667.638611,1276.687012 
	C667.675903,1065.259033 667.676392,853.830994 667.704590,642.402954 
	C667.706421,628.748840 667.402344,615.066345 668.165771,601.448914 
	C668.883240,588.652039 670.377014,575.854370 672.336731,563.181946 
	C675.272339,544.199036 678.283569,525.187988 682.371216,506.430511 
	C695.811462,444.756348 718.821472,386.711212 750.433777,332.120514 
	C807.704224,233.221344 886.270874,155.407990 984.175476,96.840439 
	C989.734009,93.515259 995.272461,90.156525 1001.230591,86.323479 
	C1006.960571,82.825218 1012.160278,79.575722 1017.624573,76.858391 
	C1029.207886,71.098259 1040.718140,65.109886 1052.642212,60.135391 
	C1071.364136,52.324905 1090.279785,44.933701 1109.349487,38.015965 
	C1123.401855,32.918304 1137.755249,28.598476 1152.118530,24.427734 
	C1162.160522,21.511744 1172.367065,19.018719 1182.640015,17.075478 
	C1198.749634,14.028168 1214.936523,11.321181 1231.166016,8.996061 
	C1247.478149,6.659119 1263.886963,4.999901 1280.238159,2.924169 
	C1281.552368,2.757328 1282.748779,1.663222 1284.000000,1.000008 
	C1300.354248,1.000000 1316.708496,1.000000 1333.531372,1.000000 
	C1334.059082,3.662656 1334.169800,6.325308 1334.169922,8.987965 
	C1334.177979,209.663071 1334.177002,410.338196 1334.179810,611.013306 
	C1334.179810,613.677551 1334.218750,616.341797 1334.227539,619.751587 
	C1334.247070,620.684570 1334.278564,620.871887 1334.310181,621.059143 
	C1334.298340,622.108093 1334.286621,623.157043 1334.211670,625.058228 
	C1334.113403,638.274231 1334.078369,650.638000 1334.043335,663.001831 
	C1332.197266,719.720276 1322.581787,775.129272 1305.280884,829.136353 
	C1283.235352,897.954773 1250.149170,961.054565 1206.276367,1018.527588 
	C1187.956299,1042.526855 1168.232300,1065.265869 1146.766602,1086.461914 
	C1104.363281,1128.332397 1057.257935,1164.031250 1005.341553,1193.342896 
	C1003.914062,1194.148804 1002.648071,1195.240845 1000.798035,1196.568726 
	C988.991150,1202.669922 977.876587,1208.805542 966.354004,1214.043701 
	C946.740906,1222.959473 927.067383,1231.807007 907.039490,1239.722168 
	C894.011597,1244.871216 880.402710,1248.644165 866.888916,1252.446411 
	C848.600342,1257.592285 830.272034,1262.708252 811.737915,1266.836182 
	C796.169373,1270.303589 780.337952,1272.753296 764.519958,1274.891968 
	C748.367920,1277.075928 732.088074,1278.309937 715.876038,1280.070068 
	C715.188965,1280.144775 714.622559,1281.331299 714.000000,1282.000000 
	C709.975464,1282.000000 705.950928,1282.000000 701.396362,1281.605469 
	C690.171143,1278.524658 679.590393,1280.457153 669.000000,1282.000000 
	C668.555542,1282.000000 668.111084,1282.000000 667.333313,1282.000000 
z"/>
<path fill="#000000" opacity="1.000000" stroke="none" 
	d="
M1381.468628,1282.000000 
	C1381.801514,1281.334351 1382.548340,1280.171509 1383.412476,1280.076660 
	C1399.502441,1278.311401 1415.664185,1277.093872 1431.690308,1274.886230 
	C1446.817017,1272.802734 1461.892822,1270.123535 1476.829956,1266.948364 
	C1495.446533,1262.991089 1514.184448,1259.190308 1532.347046,1253.617798 
	C1554.025635,1246.966553 1575.336304,1238.983887 1596.455078,1230.683960 
	C1612.630859,1224.326782 1628.595459,1217.230835 1644.046997,1209.283691 
	C1662.031616,1200.033447 1679.736206,1190.104004 1696.858032,1179.348145 
	C1713.849731,1168.673950 1730.207397,1156.934570 1746.386963,1145.041748 
	C1758.596313,1136.067261 1770.369263,1126.440430 1781.821899,1116.510498 
	C1794.691040,1105.352295 1807.320557,1093.869019 1819.415405,1081.882568 
	C1828.861572,1072.521240 1837.522949,1062.338623 1846.183350,1052.221802 
	C1855.528564,1041.305054 1864.809814,1030.300049 1873.491211,1018.857422 
	C1882.999146,1006.325378 1892.428223,993.646973 1900.737061,980.312866 
	C1912.166016,961.971497 1923.421631,943.410034 1933.075806,924.104858 
	C1943.731201,902.797913 1953.180054,880.812805 1961.870361,858.620361 
	C1969.433228,839.307678 1976.011841,819.516724 1981.531616,799.524719 
	C1986.427490,781.791382 1989.635620,763.556702 1992.893799,745.418518 
	C1995.197021,732.595459 1996.283569,719.556458 1998.033936,706.630188 
	C1998.592651,702.504089 1999.538086,698.430481 2000.653320,694.666382 
	C2001.000000,890.595764 2001.000000,1086.191528 2001.000000,1282.000000 
	C1794.645752,1282.000000 1588.291504,1282.000000 1381.468628,1282.000000 
z"/>
<path fill="#000000" opacity="1.000000" stroke="none" 
	d="
M0.999990,695.468628 
	C1.666749,696.184631 2.797745,697.322205 2.923141,698.561584 
	C3.612909,705.378784 3.621274,712.289001 4.676054,719.040283 
	C6.833628,732.850098 9.218922,746.638916 12.045598,760.325806 
	C15.312198,776.143005 18.758902,791.944641 22.837017,807.567749 
	C29.641512,833.635437 38.771149,858.979126 49.465424,883.667969 
	C59.816303,907.564026 70.705009,931.284973 84.764275,953.318359 
	C97.647636,973.508850 110.473480,993.757263 124.093216,1013.448547 
	C131.736588,1024.499268 140.726959,1034.653320 149.492035,1044.884399 
	C160.232819,1057.421753 170.901031,1070.081543 182.472626,1081.829590 
	C194.023209,1093.556152 206.453751,1104.447510 218.864883,1115.285522 
	C230.397797,1125.356812 242.114716,1135.268433 254.300980,1144.525879 
	C266.540436,1153.823730 279.153564,1162.712280 292.152618,1170.908325 
	C311.196228,1182.915527 330.311584,1194.934082 350.179749,1205.470703 
	C367.622711,1214.721191 386.039154,1222.182739 404.222595,1229.974731 
	C417.467072,1235.650391 430.826263,1241.205933 444.503723,1245.687866 
	C463.757111,1251.997192 483.174377,1257.996704 502.850891,1262.771729 
	C523.055115,1267.675049 543.579834,1271.408325 564.109131,1274.768311 
	C577.666992,1276.987427 591.486511,1277.588135 605.176941,1279.026855 
	C610.639954,1279.600952 616.070923,1280.480469 621.258240,1281.610474 
	C414.408234,1282.000000 207.816452,1282.000000 1.000000,1282.000000 
	C1.000000,1086.645874 1.000000,891.291565 0.999990,695.468628 
z"/>
<path fill="#000000" opacity="1.000000" stroke="none" 
	d="
M2001.000000,587.531372 
	C2000.335449,587.360413 1999.163818,586.780151 1999.081177,586.072449 
	C1997.315674,570.986816 1996.198120,555.804688 1993.850952,540.814148 
	C1991.702026,527.091309 1988.336548,513.553406 1985.352417,499.968048 
	C1980.329834,477.102203 1973.891602,454.629456 1965.292236,432.849670 
	C1957.032104,411.928741 1949.426514,390.635864 1939.470581,370.527740 
	C1928.094360,347.550873 1915.390869,325.089081 1901.500122,303.540497 
	C1888.516357,283.398865 1873.712891,264.356812 1858.783447,245.567429 
	C1847.860962,231.821274 1835.620361,219.097046 1823.620361,206.241135 
	C1814.926392,196.926941 1806.067017,187.690033 1796.557739,179.232315 
	C1783.251831,167.397766 1769.491943,156.042542 1755.516602,145.000793 
	C1742.667236,134.848557 1729.521729,125.025749 1716.045410,115.726242 
	C1705.158813,108.213737 1693.842773,101.229530 1682.259033,94.842018 
	C1662.382446,83.881554 1642.490967,72.839134 1621.962036,63.202095 
	C1603.485352,54.528370 1584.317017,47.224777 1565.132446,40.193394 
	C1548.965210,34.267811 1532.525635,28.868944 1515.862671,24.569649 
	C1496.652710,19.613216 1477.108887,15.896949 1457.626953,12.065913 
	C1443.786743,9.344337 1429.847900,7.040528 1415.877319,5.095323 
	C1407.112915,3.874989 1398.203857,3.711733 1389.369507,2.958766 
	C1387.667114,2.813672 1386.010376,2.132289 1384.666260,1.349146 
	C1590.258667,1.000000 1795.517334,1.000000 2001.000000,1.000000 
	C2001.000000,196.354172 2001.000000,391.708435 2001.000000,587.531372 
z"/>
<path fill="#000000" opacity="1.000000" stroke="none" 
	d="
M616.531372,1.000010 
	C616.578613,1.650411 616.214233,2.816782 615.726929,2.870618 
	C611.315308,3.358019 606.875061,3.578041 602.456909,4.015605 
	C592.689880,4.982917 582.892212,5.755985 573.178162,7.115881 
	C561.088379,8.808354 549.039124,10.842709 537.031250,13.050002 
	C527.606140,14.782522 518.148804,16.558750 508.919586,19.093765 
	C487.013885,25.110699 465.085052,31.118240 443.444366,38.005634 
	C418.413666,45.971962 394.247070,56.175644 370.555115,67.625244 
	C347.724731,78.658493 325.312439,90.452362 304.006653,104.098732 
	C284.244446,116.756439 265.055634,130.381577 246.240540,144.419937 
	C234.078094,153.494644 222.940674,163.964264 211.535400,174.025833 
	C202.782455,181.747559 193.961670,189.450821 185.826660,197.801041 
	C173.214600,210.746704 160.800247,223.924652 148.986237,237.595367 
	C139.787201,248.240158 131.156372,259.455750 123.118942,271.006287 
	C110.400719,289.283600 97.937584,307.773499 86.230347,326.707550 
	C77.611458,340.646820 69.700554,355.121246 62.690277,369.932739 
	C54.139782,387.998505 46.515732,406.529572 39.151886,425.121155 
	C33.878571,438.434723 29.223804,452.040070 25.158167,465.771362 
	C21.487816,478.167542 18.937935,490.898865 15.997520,503.506561 
	C14.120440,511.554962 12.246164,519.612122 10.707684,527.729248 
	C8.944303,537.032898 7.311144,546.375000 6.067977,555.759644 
	C4.760225,565.631714 4.000845,575.575928 2.927619,585.480652 
	C2.850031,586.196716 2.167152,586.847107 1.382848,587.264038 
	C1.000000,391.737762 1.000000,196.475510 1.000000,1.000000 
	C206.020844,1.000000 411.041779,1.000000 616.531372,1.000010 
z"/>
<path fill="#000000" opacity="1.000000" stroke="none" 
	d="
M714.468628,1282.000000 
	C714.622559,1281.331299 715.188965,1280.144775 715.876038,1280.070068 
	C732.088074,1278.309937 748.367920,1277.075928 764.519958,1274.891968 
	C780.337952,1272.753296 796.169373,1270.303589 811.737915,1266.836182 
	C830.272034,1262.708252 848.600342,1257.592285 866.888916,1252.446411 
	C880.402710,1248.644165 894.011597,1244.871216 907.039490,1239.722168 
	C927.067383,1231.807007 946.740906,1222.959473 966.354004,1214.043701 
	C977.876587,1208.805542 988.991150,1202.669922 1000.649475,1196.864868 
	C1010.868591,1201.915161 1020.541931,1207.442627 1030.626587,1212.074585 
	C1049.543579,1220.763550 1068.469482,1229.515747 1087.823975,1237.144897 
	C1104.699585,1243.796997 1121.967163,1249.663818 1139.430420,1254.562256 
	C1160.368896,1260.435425 1181.614624,1265.307373 1202.890137,1269.850586 
	C1215.947876,1272.638916 1229.273315,1274.308960 1242.546875,1275.916626 
	C1256.669922,1277.626953 1270.875610,1278.652954 1285.038208,1280.048340 
	C1285.925903,1280.135742 1286.753296,1280.834961 1287.304443,1281.624756 
	C1096.312500,1282.000000 905.624878,1282.000000 714.468628,1282.000000 
z"/>
<path fill="#000000" opacity="1.000000" stroke="none" 
	d="
M1283.531372,1.000008 
	C1282.748779,1.663222 1281.552368,2.757328 1280.238159,2.924169 
	C1263.886963,4.999901 1247.478149,6.659119 1231.166016,8.996061 
	C1214.936523,11.321181 1198.749634,14.028168 1182.640015,17.075478 
	C1172.367065,19.018719 1162.160522,21.511744 1152.118530,24.427734 
	C1137.755249,28.598476 1123.401855,32.918304 1109.349487,38.015965 
	C1090.279785,44.933701 1071.364136,52.324905 1052.642212,60.135391 
	C1040.718140,65.109886 1029.207886,71.098259 1017.624573,76.858391 
	C1012.160278,79.575722 1006.960571,82.825218 1001.318359,85.996552 
	C989.142761,80.130775 977.476318,73.694153 965.392944,68.169487 
	C947.570862,60.021046 929.735229,51.758694 911.384094,44.949657 
	C890.879822,37.341721 870.012268,30.488049 848.897827,24.812843 
	C828.103821,19.223776 806.866699,15.189787 785.702393,11.103498 
	C770.672852,8.201690 755.462341,6.194536 740.289490,4.100037 
	C734.424988,3.290480 728.436462,3.409841 722.515747,2.957884 
	C720.812500,2.827868 719.148682,2.181276 717.733398,1.385765 
	C906.354248,1.000000 1094.708496,1.000000 1283.531372,1.000008 
z"/>
<path fill="#D0696F" opacity="1.000000" stroke="none" 
	d="
M669.468628,1282.000000 
	C679.590393,1280.457153 690.171143,1278.524658 700.933105,1281.605469 
	C690.645752,1282.000000 680.291565,1282.000000 669.468628,1282.000000 
z"/>
<path fill="#FDAD37" opacity="1.000000" stroke="none" 
	d="
M1334.274658,662.660889 
	C1334.078369,650.638000 1334.113403,638.274231 1334.239258,625.450928 
	C1334.563354,631.367615 1334.951416,637.742859 1334.985596,644.120056 
	C1335.018188,650.185669 1334.680908,656.253235 1334.274658,662.660889 
z"/>
<path fill="#FDAD37" opacity="1.000000" stroke="none" 
	d="
M1334.401611,620.930054 
	C1334.278564,620.871887 1334.247070,620.684570 1334.253906,620.214844 
	C1334.531982,620.185669 1334.598877,620.475159 1334.401611,620.930054 
z"/>
</svg>